# xmcd
#
# Track frame offsets:
#	150
#	23017
#	45546
#	62323
#	83511
#	101523
#	128785
#	144209
#	174338
#	197870
#	221414
#	247052
#	274334
#	294203
#	311678
#	328382
#
# Disc length: 4710 seconds
#
# Revision: 0
# Processed by: cddbd v1.5.2PL0 Copyright (c) Steve Scherf et al.
# Submitted via: EasyCDDAExtractor 15.2.1.1
#
DISCID=df126410
DTITLE=Various Artist - Armada Lounge Volume 4
DYEAR=2011
DGENRE=Chillout, Downtempo
TTITLE0=Chris Wonderful - History
TTITLE1=Max Graham - Don't Leave Yet
TTITLE2=Zara feat. Jorge Nava - Broken (Chill Mix)
TTITLE3=Robert Nickson - Russell's Teapot
TTITLE4=tyDi feat. Tania Zygar - Vanilla (Acoustic Mix)
TTITLE5=Faruk Sabanci - As Faces Fade (Domenico Cascarino and Luca Lombardi Chil
TTITLE5=l Out Remix)
TTITLE6=John O'Callaghan and Audrey Gallagher - Bring Back The Sun (Ambient Mix)
TTITLE7=ATB and Armin van Buuren - Vice Versa
TTITLE8=Nadia Ali - Fantasy
TTITLE9=Signum - Cinematical
TTITLE10=Josh Gabriel pres. Winter Kills - Oaklahoma Town
TTITLE11=Way Out West - One Bright Night
TTITLE12=Ørjan Nilsen - Nocturnal
TTITLE13=Aly and Fila feat. Sue McLaren - Still
TTITLE14=Heatbeat - Shawarma (Chill Out Mix)
TTITLE15=EDX - Warped Minds
EXTD=
EXTT0=
EXTT1=
EXTT2=
EXTT3=
EXTT4=
EXTT5=
EXTT6=
EXTT7=
EXTT8=
EXTT9=
EXTT10=
EXTT11=
EXTT12=
EXTT13=
EXTT14=
EXTT15=
PLAYORDER=
